<svg width="192" height="120" viewBox="0 0 192 120" fill="none" xmlns="http://www.w3.org/2000/svg">
<path d="M0 12C0 5.37259 5.37258 0 12 0H180C186.627 0 192 5.37258 192 12V108C192 114.627 186.627 120 180 120H12C5.37258 120 0 114.627 0 108V12Z" fill="white"/>
<path fill-rule="evenodd" clip-rule="evenodd" d="M180 16C180 13.7909 178.209 12 176 12H16C13.7909 12 12 13.7909 12 16V104C12 106.209 13.7909 108 16 108H176C178.209 108 180 106.209 180 104V16ZM12 0C5.37258 0 0 5.37259 0 12V108C0 114.627 5.37258 120 12 120H180C186.627 120 192 114.627 192 108V12C192 5.37258 186.627 0 180 0H12Z" fill="#98A7B7"/>
<rect x="12" y="30" width="168" height="24" fill="#98A7B7"/>
<rect x="24" y="66" width="72" height="12" rx="6" fill="#98A7B7"/>
<rect x="24" y="86" width="36" height="12" rx="6" fill="#98A7B7"/>
</svg>
