<svg width="192" height="120" viewBox="0 0 192 120" fill="none" xmlns="http://www.w3.org/2000/svg">
<rect width="192" height="120" rx="12" fill="#13181D"/>
<path d="M115.428 25.4082H76.9326V94.5902H115.428V25.4082Z" fill="#FF5F00"/>
<path d="M79.3761 60.0049C79.369 53.3413 80.8782 46.7633 83.7895 40.7692C86.7008 34.7752 90.9378 29.5221 96.1797 25.4078C89.6894 20.3071 81.895 17.1353 73.6873 16.2549C65.4796 15.3745 57.1898 16.8209 49.7653 20.429C42.3408 24.037 36.0811 29.6611 31.7018 36.6585C27.3224 43.6558 25 51.744 25 59.9988C25 68.2536 27.3224 76.3419 31.7018 83.3392C36.0811 90.3365 42.3408 95.9606 49.7653 99.5686C57.1898 103.177 65.4796 104.623 73.6873 103.743C81.895 102.862 89.6894 99.6905 96.1797 94.5898C90.9395 90.4768 86.7034 85.2257 83.7922 79.2339C80.881 73.2421 79.3709 66.6665 79.3761 60.0049Z" fill="#EB001B"/>
<path d="M167.367 60.0061C167.367 68.2615 165.044 76.3503 160.664 83.3478C156.283 90.3454 150.023 95.9694 142.597 99.5769C135.172 103.184 126.881 104.63 118.673 103.748C110.465 102.867 102.671 99.6933 96.1807 94.591C101.419 90.4743 105.654 85.2218 108.566 79.2296C111.478 73.2375 112.991 66.6622 112.991 60C112.991 53.3378 111.478 46.7625 108.566 40.7704C105.654 34.7782 101.419 29.5257 96.1807 25.409C102.671 20.3067 110.465 17.1334 118.673 16.2517C126.881 15.37 135.172 16.8155 142.597 20.4231C150.023 24.0306 156.283 29.6546 160.664 36.6522C165.044 43.6497 167.367 51.7385 167.367 59.9939V60.0061Z" fill="#F79E1B"/>
<path d="M163.161 87.2607V85.8431H163.736V85.5498H162.281V85.8431H162.905V87.2607H163.161ZM165.984 87.2607V85.5498H165.544L165.031 86.7719L164.518 85.5498H164.127V87.2607H164.444V85.9775L164.921 87.0896H165.251L165.728 85.9775V87.2729L165.984 87.2607Z" fill="#F79E1B"/>
</svg>
